<mxfile host="app.diagrams.net" modified="2023-10-14T14:28:45.919Z" agent="Mozilla/5.0 (Macintosh; Intel Mac OS X 10_15_7) AppleWebKit/537.36 (KHTML, like Gecko) Chrome/117.0.0.0 Safari/537.36" etag="bggDdXqNwlZ6JD7tMfte" version="22.0.4" type="device">
  <diagram name="Страница — 1" id="TWIJEeuGRXj0r5bxe30v">
    <mxGraphModel dx="2229" dy="938" grid="1" gridSize="10" guides="1" tooltips="1" connect="1" arrows="1" fold="1" page="1" pageScale="1" pageWidth="827" pageHeight="1169" math="0" shadow="0">
      <root>
        <mxCell id="0" />
        <mxCell id="1" parent="0" />
        <mxCell id="KQx4U6ExPH6CREtwssww-1" style="edgeStyle=orthogonalEdgeStyle;rounded=0;orthogonalLoop=1;jettySize=auto;html=1;entryX=0.5;entryY=0;entryDx=0;entryDy=0;exitX=0.5;exitY=1;exitDx=0;exitDy=0;exitPerimeter=0;fontSize=14;fontFamily=Times New Roman;" edge="1" parent="1" source="KQx4U6ExPH6CREtwssww-33" target="KQx4U6ExPH6CREtwssww-16">
          <mxGeometry relative="1" as="geometry">
            <mxPoint x="-32.5" y="160" as="sourcePoint" />
          </mxGeometry>
        </mxCell>
        <mxCell id="KQx4U6ExPH6CREtwssww-2" value="" style="edgeStyle=orthogonalEdgeStyle;rounded=0;orthogonalLoop=1;jettySize=auto;html=1;fontSize=14;fontFamily=Times New Roman;" edge="1" parent="1" source="KQx4U6ExPH6CREtwssww-4" target="KQx4U6ExPH6CREtwssww-18">
          <mxGeometry relative="1" as="geometry" />
        </mxCell>
        <mxCell id="KQx4U6ExPH6CREtwssww-3" style="edgeStyle=orthogonalEdgeStyle;rounded=0;orthogonalLoop=1;jettySize=auto;html=1;entryX=0.5;entryY=0;entryDx=0;entryDy=0;entryPerimeter=0;fontSize=14;fontFamily=Times New Roman;" edge="1" parent="1" source="KQx4U6ExPH6CREtwssww-4" target="KQx4U6ExPH6CREtwssww-34">
          <mxGeometry relative="1" as="geometry">
            <mxPoint x="230" y="440" as="targetPoint" />
          </mxGeometry>
        </mxCell>
        <mxCell id="KQx4U6ExPH6CREtwssww-4" value="Стек не пуст?" style="strokeWidth=2;html=1;shape=mxgraph.flowchart.decision;whiteSpace=wrap;fontSize=14;fontFamily=Times New Roman;" vertex="1" parent="1">
          <mxGeometry x="-127.5" y="340" width="190" height="100" as="geometry" />
        </mxCell>
        <mxCell id="KQx4U6ExPH6CREtwssww-5" style="edgeStyle=orthogonalEdgeStyle;rounded=0;orthogonalLoop=1;jettySize=auto;html=1;entryX=0.5;entryY=0;entryDx=0;entryDy=0;entryPerimeter=0;exitX=0;exitY=0.5;exitDx=0;exitDy=0;exitPerimeter=0;fontSize=14;fontFamily=Times New Roman;" edge="1" parent="1" source="KQx4U6ExPH6CREtwssww-7" target="KQx4U6ExPH6CREtwssww-10">
          <mxGeometry relative="1" as="geometry" />
        </mxCell>
        <mxCell id="KQx4U6ExPH6CREtwssww-6" style="edgeStyle=orthogonalEdgeStyle;rounded=0;orthogonalLoop=1;jettySize=auto;html=1;entryX=0.5;entryY=0;entryDx=0;entryDy=0;fontSize=14;fontFamily=Times New Roman;" edge="1" parent="1" source="KQx4U6ExPH6CREtwssww-7" target="KQx4U6ExPH6CREtwssww-24">
          <mxGeometry relative="1" as="geometry">
            <Array as="points">
              <mxPoint x="-34" y="880" />
              <mxPoint x="-34" y="1100" />
            </Array>
          </mxGeometry>
        </mxCell>
        <mxCell id="KQx4U6ExPH6CREtwssww-7" value="В массиве не все&lt;br style=&quot;font-size: 14px;&quot;&gt;многоугольники являются охватывающими?" style="strokeWidth=2;html=1;shape=mxgraph.flowchart.decision;whiteSpace=wrap;fontSize=14;fontFamily=Times New Roman;" vertex="1" parent="1">
          <mxGeometry x="-280" y="830" width="200" height="100" as="geometry" />
        </mxCell>
        <mxCell id="KQx4U6ExPH6CREtwssww-8" style="edgeStyle=orthogonalEdgeStyle;rounded=0;orthogonalLoop=1;jettySize=auto;html=1;entryX=0.5;entryY=0;entryDx=0;entryDy=0;entryPerimeter=0;fontSize=14;fontFamily=Times New Roman;" edge="1" parent="1" source="KQx4U6ExPH6CREtwssww-10" target="KQx4U6ExPH6CREtwssww-37">
          <mxGeometry relative="1" as="geometry">
            <Array as="points">
              <mxPoint x="-181" y="960" />
            </Array>
          </mxGeometry>
        </mxCell>
        <mxCell id="KQx4U6ExPH6CREtwssww-9" style="edgeStyle=orthogonalEdgeStyle;rounded=0;orthogonalLoop=1;jettySize=auto;html=1;entryX=0.5;entryY=0;entryDx=0;entryDy=0;fontSize=14;fontFamily=Times New Roman;" edge="1" parent="1" source="KQx4U6ExPH6CREtwssww-10" target="KQx4U6ExPH6CREtwssww-20">
          <mxGeometry relative="1" as="geometry">
            <Array as="points">
              <mxPoint x="-459" y="960" />
              <mxPoint x="-459" y="990" />
            </Array>
          </mxGeometry>
        </mxCell>
        <mxCell id="KQx4U6ExPH6CREtwssww-10" value="В массиве есть &lt;br style=&quot;font-size: 14px;&quot;&gt;охватывающие &lt;br style=&quot;font-size: 14px;&quot;&gt;многоугольники?" style="strokeWidth=2;html=1;shape=mxgraph.flowchart.decision;whiteSpace=wrap;fontSize=14;fontFamily=Times New Roman;" vertex="1" parent="1">
          <mxGeometry x="-430" y="910" width="200" height="100" as="geometry" />
        </mxCell>
        <mxCell id="KQx4U6ExPH6CREtwssww-11" style="edgeStyle=orthogonalEdgeStyle;rounded=0;orthogonalLoop=1;jettySize=auto;html=1;entryX=0.5;entryY=0;entryDx=0;entryDy=0;entryPerimeter=0;exitX=0;exitY=0.5;exitDx=0;exitDy=0;exitPerimeter=0;fontSize=14;fontFamily=Times New Roman;" edge="1" parent="1" source="KQx4U6ExPH6CREtwssww-12" target="KQx4U6ExPH6CREtwssww-7">
          <mxGeometry relative="1" as="geometry">
            <mxPoint x="-180" y="785" as="sourcePoint" />
          </mxGeometry>
        </mxCell>
        <mxCell id="KQx4U6ExPH6CREtwssww-12" value="Площадь окна равна&lt;br style=&quot;font-size: 14px;&quot;&gt;одному пикселю?" style="strokeWidth=2;html=1;shape=mxgraph.flowchart.decision;whiteSpace=wrap;fontSize=14;fontFamily=Times New Roman;" vertex="1" parent="1">
          <mxGeometry x="-131.87" y="750" width="200" height="100" as="geometry" />
        </mxCell>
        <mxCell id="KQx4U6ExPH6CREtwssww-13" style="edgeStyle=orthogonalEdgeStyle;rounded=0;orthogonalLoop=1;jettySize=auto;html=1;entryX=0.5;entryY=0;entryDx=0;entryDy=0;fontSize=14;fontFamily=Times New Roman;" edge="1" parent="1" source="KQx4U6ExPH6CREtwssww-14" target="KQx4U6ExPH6CREtwssww-22">
          <mxGeometry relative="1" as="geometry" />
        </mxCell>
        <mxCell id="KQx4U6ExPH6CREtwssww-14" value="&lt;span style=&quot;font-size: 14px;&quot;&gt;Выделить в массиве многоугольников&lt;/span&gt;&lt;br style=&quot;font-size: 14px;&quot;&gt;&lt;span style=&quot;font-size: 14px;&quot;&gt;внешние и охватывающие&lt;/span&gt;" style="shape=process;whiteSpace=wrap;html=1;backgroundOutline=1;fontSize=14;strokeWidth=2;fontFamily=Times New Roman;" vertex="1" parent="1">
          <mxGeometry x="-127.5" y="560" width="190" height="67.5" as="geometry" />
        </mxCell>
        <mxCell id="KQx4U6ExPH6CREtwssww-15" style="edgeStyle=orthogonalEdgeStyle;rounded=0;orthogonalLoop=1;jettySize=auto;html=1;entryX=0.5;entryY=0;entryDx=0;entryDy=0;entryPerimeter=0;fontSize=14;fontFamily=Times New Roman;" edge="1" parent="1" source="KQx4U6ExPH6CREtwssww-16" target="KQx4U6ExPH6CREtwssww-4">
          <mxGeometry relative="1" as="geometry" />
        </mxCell>
        <mxCell id="KQx4U6ExPH6CREtwssww-16" value="Добавить исходное окно в стек" style="rounded=0;whiteSpace=wrap;html=1;strokeWidth=2;fontSize=14;fontFamily=Times New Roman;" vertex="1" parent="1">
          <mxGeometry x="-112.5" y="250" width="160" height="60" as="geometry" />
        </mxCell>
        <mxCell id="KQx4U6ExPH6CREtwssww-17" value="" style="edgeStyle=orthogonalEdgeStyle;rounded=0;orthogonalLoop=1;jettySize=auto;html=1;fontSize=14;fontFamily=Times New Roman;" edge="1" parent="1" source="KQx4U6ExPH6CREtwssww-18" target="KQx4U6ExPH6CREtwssww-14">
          <mxGeometry relative="1" as="geometry" />
        </mxCell>
        <mxCell id="KQx4U6ExPH6CREtwssww-18" value="Извлечь окно из стека" style="rounded=0;whiteSpace=wrap;html=1;strokeWidth=2;fontSize=14;fontFamily=Times New Roman;" vertex="1" parent="1">
          <mxGeometry x="-125.93" y="470" width="186.87" height="60" as="geometry" />
        </mxCell>
        <mxCell id="KQx4U6ExPH6CREtwssww-19" value="Закрасить пиксель цветом ближайшего к наблюдателю охватывающего многоугольника" style="rounded=0;whiteSpace=wrap;html=1;strokeWidth=2;fontSize=14;fontFamily=Times New Roman;" vertex="1" parent="1">
          <mxGeometry x="20" y="850" width="190" height="90" as="geometry" />
        </mxCell>
        <mxCell id="KQx4U6ExPH6CREtwssww-20" value="Закрасить окно цветом фона" style="rounded=0;whiteSpace=wrap;html=1;strokeWidth=2;fontSize=14;fontFamily=Times New Roman;" vertex="1" parent="1">
          <mxGeometry x="-540" y="1010" width="161" height="60" as="geometry" />
        </mxCell>
        <mxCell id="KQx4U6ExPH6CREtwssww-21" style="edgeStyle=orthogonalEdgeStyle;rounded=0;orthogonalLoop=1;jettySize=auto;html=1;entryX=0.5;entryY=0;entryDx=0;entryDy=0;entryPerimeter=0;fontSize=14;fontFamily=Times New Roman;" edge="1" parent="1" source="KQx4U6ExPH6CREtwssww-22" target="KQx4U6ExPH6CREtwssww-12">
          <mxGeometry relative="1" as="geometry" />
        </mxCell>
        <mxCell id="KQx4U6ExPH6CREtwssww-22" value="Удалить из массива внешние многоугольники" style="rounded=0;whiteSpace=wrap;html=1;strokeWidth=2;fontSize=14;fontFamily=Times New Roman;" vertex="1" parent="1">
          <mxGeometry x="-126.88" y="660" width="189.38" height="60" as="geometry" />
        </mxCell>
        <mxCell id="KQx4U6ExPH6CREtwssww-23" value="Закрасить окно цветом ближайшего к наблюдателю охватывающего многоугольника" style="rounded=0;whiteSpace=wrap;html=1;strokeWidth=2;fontSize=14;fontFamily=Times New Roman;" vertex="1" parent="1">
          <mxGeometry x="-420" y="1090" width="180" height="80" as="geometry" />
        </mxCell>
        <mxCell id="KQx4U6ExPH6CREtwssww-24" value="Разбить окно на подокна и добавить их в стек" style="rounded=0;whiteSpace=wrap;html=1;strokeWidth=2;fontSize=14;fontFamily=Times New Roman;" vertex="1" parent="1">
          <mxGeometry x="-114.38000000000001" y="1090" width="160" height="60" as="geometry" />
        </mxCell>
        <mxCell id="KQx4U6ExPH6CREtwssww-25" value="" style="endArrow=classic;html=1;rounded=0;exitX=0.5;exitY=1;exitDx=0;exitDy=0;entryX=0;entryY=0.5;entryDx=0;entryDy=0;entryPerimeter=0;fontSize=14;fontFamily=Times New Roman;" edge="1" parent="1" source="KQx4U6ExPH6CREtwssww-24" target="KQx4U6ExPH6CREtwssww-4">
          <mxGeometry width="50" height="50" relative="1" as="geometry">
            <mxPoint x="-110" y="750" as="sourcePoint" />
            <mxPoint x="-60" y="700" as="targetPoint" />
            <Array as="points">
              <mxPoint x="-34" y="1180" />
              <mxPoint x="-570" y="1180" />
              <mxPoint x="-570" y="390" />
            </Array>
          </mxGeometry>
        </mxCell>
        <mxCell id="KQx4U6ExPH6CREtwssww-26" value="" style="endArrow=none;html=1;rounded=0;entryX=0.5;entryY=1;entryDx=0;entryDy=0;fontSize=14;fontFamily=Times New Roman;" edge="1" parent="1" target="KQx4U6ExPH6CREtwssww-23">
          <mxGeometry width="50" height="50" relative="1" as="geometry">
            <mxPoint x="-500" y="1180" as="sourcePoint" />
            <mxPoint x="-450" y="1245" as="targetPoint" />
            <Array as="points">
              <mxPoint x="-330" y="1180" />
            </Array>
          </mxGeometry>
        </mxCell>
        <mxCell id="KQx4U6ExPH6CREtwssww-27" value="" style="endArrow=none;html=1;rounded=0;entryX=0.5;entryY=1;entryDx=0;entryDy=0;fontSize=14;fontFamily=Times New Roman;" edge="1" parent="1" target="KQx4U6ExPH6CREtwssww-20">
          <mxGeometry width="50" height="50" relative="1" as="geometry">
            <mxPoint x="-250" y="1180" as="sourcePoint" />
            <mxPoint x="-40" y="1145" as="targetPoint" />
            <Array as="points">
              <mxPoint x="-460" y="1180" />
            </Array>
          </mxGeometry>
        </mxCell>
        <mxCell id="KQx4U6ExPH6CREtwssww-28" value="" style="endArrow=none;html=1;rounded=0;entryX=0.5;entryY=1;entryDx=0;entryDy=0;fontSize=14;fontFamily=Times New Roman;" edge="1" parent="1" target="KQx4U6ExPH6CREtwssww-19">
          <mxGeometry width="50" height="50" relative="1" as="geometry">
            <mxPoint x="-90" y="1180" as="sourcePoint" />
            <mxPoint x="200" y="1115" as="targetPoint" />
            <Array as="points">
              <mxPoint x="115" y="1180" />
            </Array>
          </mxGeometry>
        </mxCell>
        <mxCell id="KQx4U6ExPH6CREtwssww-29" value="Да" style="text;html=1;strokeColor=none;fillColor=none;align=center;verticalAlign=middle;whiteSpace=wrap;rounded=0;fontSize=14;fontFamily=Times New Roman;" vertex="1" parent="1">
          <mxGeometry x="-30" y="440" width="40" height="20" as="geometry" />
        </mxCell>
        <mxCell id="KQx4U6ExPH6CREtwssww-30" value="Да" style="text;html=1;strokeColor=none;fillColor=none;align=center;verticalAlign=middle;whiteSpace=wrap;rounded=0;fontSize=14;fontFamily=Times New Roman;" vertex="1" parent="1">
          <mxGeometry x="80" y="775" width="40" height="20" as="geometry" />
        </mxCell>
        <mxCell id="KQx4U6ExPH6CREtwssww-31" value="Да" style="text;html=1;strokeColor=none;fillColor=none;align=center;verticalAlign=middle;whiteSpace=wrap;rounded=0;fontSize=14;fontFamily=Times New Roman;" vertex="1" parent="1">
          <mxGeometry x="-80" y="855" width="40" height="20" as="geometry" />
        </mxCell>
        <mxCell id="KQx4U6ExPH6CREtwssww-32" value="Да" style="text;html=1;strokeColor=none;fillColor=none;align=center;verticalAlign=middle;whiteSpace=wrap;rounded=0;fontSize=14;fontFamily=Times New Roman;" vertex="1" parent="1">
          <mxGeometry x="-230" y="940" width="40" height="20" as="geometry" />
        </mxCell>
        <mxCell id="KQx4U6ExPH6CREtwssww-33" value="Начало" style="strokeWidth=2;html=1;shape=mxgraph.flowchart.terminator;whiteSpace=wrap;fontSize=14;fontFamily=Times New Roman;" vertex="1" parent="1">
          <mxGeometry x="-112.5" y="160" width="156.25" height="60" as="geometry" />
        </mxCell>
        <mxCell id="KQx4U6ExPH6CREtwssww-34" value="Конец" style="strokeWidth=2;html=1;shape=mxgraph.flowchart.terminator;whiteSpace=wrap;fontSize=14;fontFamily=Times New Roman;" vertex="1" parent="1">
          <mxGeometry x="120" y="470" width="156.25" height="60" as="geometry" />
        </mxCell>
        <mxCell id="KQx4U6ExPH6CREtwssww-35" style="edgeStyle=orthogonalEdgeStyle;rounded=0;orthogonalLoop=1;jettySize=auto;html=1;entryX=0.5;entryY=0;entryDx=0;entryDy=0;fontSize=14;fontFamily=Times New Roman;" edge="1" parent="1" source="KQx4U6ExPH6CREtwssww-37" target="KQx4U6ExPH6CREtwssww-24">
          <mxGeometry relative="1" as="geometry">
            <Array as="points">
              <mxPoint x="-34" y="1040" />
            </Array>
          </mxGeometry>
        </mxCell>
        <mxCell id="KQx4U6ExPH6CREtwssww-36" style="edgeStyle=orthogonalEdgeStyle;rounded=0;orthogonalLoop=1;jettySize=auto;html=1;entryX=0.5;entryY=0;entryDx=0;entryDy=0;fontSize=14;fontFamily=Times New Roman;" edge="1" parent="1" source="KQx4U6ExPH6CREtwssww-37" target="KQx4U6ExPH6CREtwssww-23">
          <mxGeometry relative="1" as="geometry">
            <Array as="points">
              <mxPoint x="-330" y="1040" />
            </Array>
          </mxGeometry>
        </mxCell>
        <mxCell id="KQx4U6ExPH6CREtwssww-37" value="Среди охватывающих многоугольников нет&lt;br style=&quot;font-size: 14px;&quot;&gt;ближайшего?" style="strokeWidth=2;html=1;shape=mxgraph.flowchart.decision;whiteSpace=wrap;fontSize=14;fontFamily=Times New Roman;" vertex="1" parent="1">
          <mxGeometry x="-290" y="980" width="220" height="120" as="geometry" />
        </mxCell>
        <mxCell id="KQx4U6ExPH6CREtwssww-38" value="Да" style="text;html=1;strokeColor=none;fillColor=none;align=center;verticalAlign=middle;whiteSpace=wrap;rounded=0;fontSize=14;fontFamily=Times New Roman;" vertex="1" parent="1">
          <mxGeometry x="-81.25" y="1015" width="40" height="20" as="geometry" />
        </mxCell>
        <mxCell id="KQx4U6ExPH6CREtwssww-39" style="edgeStyle=orthogonalEdgeStyle;rounded=0;orthogonalLoop=1;jettySize=auto;html=1;entryX=0.5;entryY=0;entryDx=0;entryDy=0;exitX=1;exitY=0.5;exitDx=0;exitDy=0;exitPerimeter=0;fontSize=14;fontFamily=Times New Roman;" edge="1" parent="1" source="KQx4U6ExPH6CREtwssww-12" target="KQx4U6ExPH6CREtwssww-19">
          <mxGeometry relative="1" as="geometry">
            <mxPoint x="67.5" y="802.5015673981192" as="sourcePoint" />
            <mxPoint x="125" y="850" as="targetPoint" />
            <Array as="points">
              <mxPoint x="115" y="800" />
            </Array>
          </mxGeometry>
        </mxCell>
      </root>
    </mxGraphModel>
  </diagram>
</mxfile>
